<svg width="964" height="121" viewBox="0 0 964 121" fill="none" xmlns="http://www.w3.org/2000/svg">
<path d="M62.5 26.4L55.9 33C66.7 43.8 66.7 61.2 55.9 71.8C45.1 82.6 27.7 82.6 17.1 71.8C6.3 61 6.3 43.6 17.1 33L34.2 15.9L36.6 13.5V0.599976L10.8 26.4C-3.6 40.8 -3.6 64 10.8 78.4C25.2 92.8 48.4 92.8 62.5 78.4C76.9 63.9 76.9 40.8 62.5 26.4Z" fill="#EE4C2C"/>
<path d="M49.6 24.8C52.251 24.8 54.4 22.651 54.4 20C54.4 17.349 52.251 15.2 49.6 15.2C46.949 15.2 44.8 17.349 44.8 20C44.8 22.651 46.949 24.8 49.6 24.8Z" fill="#EE4C2C"/>
<path d="M130.2 60.4H119.1V88.9H110.7V7.79999C110.7 7.79999 129.9 7.79999 131.1 7.79999C152.4 7.79999 162.6 18.3 162.6 33C162.9 51.1 150.3 60.4 130.2 60.4ZM131.1 15.9C130.2 15.9 119.4 15.9 119.4 15.9V53.2L130.8 52.9C146.1 52.6 154.5 46.6 154.5 34C154.5 22.2 146.1 15.9 131.1 15.9Z" fill="white"/>
<path d="M200.2 88.6L195.4 101.5C190 115.9 184.3 120.1 176.2 120.1C171.7 120.1 168.4 118.9 164.8 117.4L167.2 109.9C169.9 111.4 172.9 112.6 176.2 112.6C180.7 112.6 184 110.2 188.5 98.8L192.4 88.3L169.3 29.7H178L196.6 78.7L214.9 29.7H223.3L200.2 88.6Z" fill="white"/>
<path d="M250.7 15.9V89.2H242.3V15.9H213.8V8.09998H279V15.9C278.9 15.9 250.7 15.9 250.7 15.9Z" fill="white"/>
<path d="M302.7 90.7C286.2 90.7 274.2 78.4 274.2 59.5C274.2 40.6 286.8 28 303.6 28C320.4 28 332.1 40.3 332.1 59.2C331.8 78.1 319.2 90.7 302.7 90.7ZM303 35.5C290.4 35.5 282.3 45.4 282.3 59.5C282.3 73.9 290.7 83.8 303.3 83.8C315.9 83.8 324 73.9 324 59.8C324 45.1 315.6 35.5 303 35.5Z" fill="white"/>
<path d="M352.2 89.2H344.1V29.7L352.2 27.9V40.5C356.1 33 361.8 27.9 369.6 27.9C373.5 27.9 377.1 29.1 380.1 30.6L378 38.1C375.3 36.6 372.3 35.4 369 35.4C362.7 35.4 357 40.2 352.2 50.7V89.2Z" fill="white"/>
<path d="M411.7 90.7C393.7 90.7 382.6 77.8 382.6 59.5C382.6 40.9 394.9 28 411.7 28C418.9 28 425.2 29.8 430.3 33.1L428.2 40.3C423.7 37.3 418 35.5 411.7 35.5C398.8 35.5 391 45.1 391 59.2C391 73.6 399.4 83.2 412 83.2C418 83.2 424 81.4 428.5 78.4L430.3 85.9C424.9 88.9 418.6 90.7 411.7 90.7Z" fill="white"/>
<path d="M479.9 89.2V50.7C479.9 40.2 475.7 35.7 467.3 35.7C460.4 35.7 453.8 39.3 449 44.1V89.2H440.9V1.79999L449 0C449 0 449 37.3 449 37.6C455.3 31.3 463.1 28.3 469.7 28.3C481.1 28.3 488.3 35.8 488.3 48.7V89.3H479.9V89.2Z" fill="white"/>
<path d="M557.95 49.4H535.85V40.25H557.95V49.4ZM562 36.95H531.85V52.7H562V36.95ZM535.85 65.9H531.75V78.7H562.75V75.35H535.85V65.9ZM526.55 57.8V61.1H545.2V70.15H549.3V61.1H567.3V57.8H526.55Z" fill="white"/>
<path d="M588.346 38.7H584.246V46.75C584.246 55.05 579.146 63.7 572.646 66.95L575.146 70.2C580.196 67.5 584.346 61.85 586.296 55.2C588.346 61.5 592.446 66.85 597.546 69.4L599.946 66.15C593.446 63.05 588.346 54.9 588.346 46.75V38.7ZM605.496 34.85V50.05H595.096V53.4H605.496V79.75H609.596V34.85H605.496Z" fill="white"/>
<path d="M649.445 57.1H637.345V49H649.445V57.1ZM653.495 50.85H663.845V68.05H667.995V34.85H663.845V47.5H653.495V37.85H649.445V45.75H637.345V37.85H633.295V60.4H653.495V50.85ZM643.245 75.35V64.8H639.145V78.7H669.045V75.35H643.245Z" fill="white"/>
<path d="M683.991 67.1H709.841V79.75H713.991V63.75H683.991V67.1ZM700.291 51.5C700.591 50.45 700.791 49.35 700.791 48.1C700.791 46.9 700.591 45.8 700.291 44.75H709.841V51.5H700.291ZM689.241 55.45C684.891 55.45 681.641 52.4 681.641 48.1C681.641 43.9 684.891 40.85 689.241 40.85C693.641 40.85 696.891 43.9 696.891 48.1C696.891 52.4 693.641 55.45 689.241 55.45ZM709.841 34.9V41.45H698.541C696.441 38.9 693.141 37.35 689.241 37.35C682.641 37.35 677.741 41.8 677.741 48.1C677.741 54.45 682.641 58.95 689.241 58.95C693.141 58.95 696.391 57.4 698.491 54.85H709.841V61.3H713.991V34.85L709.841 34.9Z" fill="white"/>
<path d="M761.239 58.25H750.089V42.65H761.239V58.25ZM745.989 58.25H739.139V61.6H772.189V58.25H765.339V42.65H772.289V39.35H739.039V42.65H745.989V58.25ZM735.439 70.55V73.95H776.089V70.55H735.439Z" fill="white"/>
<path d="M803.785 70.8V62.35H818.135V59.05H790.535V51.8H817.085V38.15H786.385V41.5H813.085V48.5H786.485V62.35H799.635V70.8H781.385V74.15H822.135V70.8H803.785Z" fill="white"/>
<path d="M845.931 46.4V49.75H852.681V61.95H856.581V35.85H852.681V46.4H845.931ZM849.431 57C843.831 54.6 840.681 49.3 840.681 44.35V41.85H848.381V38.5H828.481V41.85H836.731V44.4C836.731 49.75 833.431 55.55 827.631 58.05L829.781 61.2C834.131 59.25 837.231 55.55 838.781 51.2C840.331 55.1 843.281 58.35 847.381 60.15L849.431 57ZM835.131 67.6H861.181V79.75H865.281V64.3H835.131V67.6ZM861.331 34.9V62.3H865.281V34.9H861.331Z" fill="white"/>
<path d="M909.427 59.05H882.777V51.95H907.977V48.7H882.777V42.05H908.977V38.75H878.627V62.35H909.427V59.05ZM873.377 70.55V73.9H914.077V70.55H873.377Z" fill="white"/>
</svg>
